<svg id="e1i80ag8g4vp1" xmlns="http://www.w3.org/2000/svg" xmlns:xlink="http://www.w3.org/1999/xlink" viewBox="0 0 8534 8534" shape-rendering="geometricPrecision" text-rendering="geometricPrecision"><g id="e1i80ag8g4vp2" transform="matrix(4.16666984558105 0 0 4.16666984558105 0 0)" opacity="0" clip-rule="evenodd"><g id="e1i80ag8g4vp3" transform="matrix(1 0 0 1 652.44799804687500 925.28497314453125)" clip-rule="evenodd"><path id="e1i80ag8g4vp4" d="M0,840.772000C-8.207000,840.772000,-16.270000,838.372000,-23.181000,833.816000C-205.353000,713.646000,-314.112000,512.092000,-314.112000,294.663000C-314.112000,200.403000,-294.146000,109.475000,-254.766000,24.411000C-247.872000,9.525000,-232.966000,0,-216.562000,0L22.649000,0C115.494000,0,191.029000,75.536000,191.029000,168.380000C191.029000,261.225000,115.494000,336.760000,22.649000,336.760000L-19.447000,336.760000C-42.658000,336.760000,-61.542000,355.645000,-61.542000,378.856000C-61.542000,402.068000,-42.658000,420.952000,-19.447000,420.952000C96.609000,420.952000,191.027000,515.370000,191.027000,631.425000C191.027000,738.430000,110.968000,828.315000,4.803000,840.502000C3.200000,840.684000,1.596000,840.772000,0,840.772000" clip-rule="evenodd" fill="rgb(138,198,63)" stroke="none" stroke-width="1" stroke-miterlimit="10"/></g><g id="e1i80ag8g4vp5" transform="matrix(1 0 0 1 1004.15997314453125 686.74597167968750)" clip-rule="evenodd"><path id="e1i80ag8g4vp6" d="M0,1178.290000C-1.263000,1178.290000,-2.526000,1178.230000,-3.785000,1178.120000C-69.238000,1172.210000,-118.595000,1118.150000,-118.595000,1052.370000C-118.595000,982.737000,-61.943000,926.086000,7.690000,926.086000L176.070000,926.086000C199.281000,926.086000,218.166000,907.201000,218.166000,883.990000C218.166000,860.779000,199.281000,841.894000,176.070000,841.894000C106.437000,841.894000,49.786000,785.243000,49.786000,715.610000C49.786000,645.977000,106.437000,589.325000,176.070000,589.325000L344.451000,589.325000C367.662000,589.325000,386.547000,570.440000,386.547000,547.229000C386.547000,524.019000,367.662000,505.134000,344.451000,505.134000L133.978000,505.134000C-5.290000,505.134000,-118.592000,391.831000,-118.592000,252.564000C-118.592000,113.297000,-5.295000,0,133.973000,0L329.770000,0C338.551000,0,347.113000,2.748000,354.256000,7.854000C436.171000,66.434000,504.224000,144.373000,551.060000,233.256000C599.483000,325.160000,625.080000,428.879000,625.080000,533.201000C625.080000,701.556000,560.396000,861.001000,442.953000,982.168000C325.778000,1103.050000,168.963000,1172.700000,1.397000,1178.270000C0.930000,1178.280000,0.464000,1178.290000,0,1178.290000" clip-rule="evenodd" fill="rgb(138,198,63)" stroke="none" stroke-width="1" stroke-miterlimit="10"/></g><g id="e1i80ag8g4vp7" transform="matrix(1 0 0 1 1447.11999511718750 882.87500000000000)" clip-rule="evenodd"><path id="e1i80ag8g4vp8" d="M0,786.039000C117.442000,664.872000,182.127000,505.427000,182.127000,337.072000C182.127000,232.750000,156.530000,129.031000,108.104000,37.127000C61.272000,-51.752000,-6.782000,-129.695000,-88.697000,-188.275000C-95.843000,-193.383000,-104.404000,-196.129000,-113.184000,-196.129000L-308.979000,-196.129000C-367.060000,-196.129000,-420.614000,-176.412000,-463.325000,-143.333000L-463.325000,256.214000C-420.612000,289.291000,-367.057000,309.010000,-308.979000,309.010000L-98.505000,309.010000C-75.294000,309.010000,-56.409000,327.894000,-56.409000,351.105000C-56.409000,374.316000,-75.294000,393.201000,-98.505000,393.201000L-266.885000,393.201000C-336.519000,393.201000,-393.170000,449.852000,-393.170000,519.486000C-393.170000,589.119000,-336.519000,645.770000,-266.885000,645.770000C-243.674000,645.770000,-224.789000,664.655000,-224.789000,687.866000C-224.789000,711.077000,-243.674000,729.962000,-266.885000,729.962000L-435.266000,729.962000C-444.915000,729.962000,-454.296000,731.084000,-463.328000,733.143000L-463.328000,979.385000C-457.930000,980.593000,-452.400000,981.487000,-446.740000,981.997000C-445.482000,982.113000,-444.219000,982.168000,-442.956000,982.168000C-442.489000,982.168000,-442.023000,982.161000,-441.559000,982.145000C-273.990000,976.566000,-117.175000,906.925000,0,786.039000" clip-rule="evenodd" fill="rgb(127,180,65)" stroke="none" stroke-width="1" stroke-miterlimit="10"/></g><g id="e1i80ag8g4vp9" transform="matrix(1 0 0 1 983.79101562500000 574.49200439453125)" clip-rule="evenodd"><path id="e1i80ag8g4vp10" d="M0,1290.910000C-126.512000,1290.910000,-249.105000,1254.150000,-354.523000,1184.610000C-369.301000,1174.860000,-376.398000,1156.910000,-372.289000,1139.690000C-368.176000,1122.480000,-353.734000,1109.670000,-336.146000,1107.650000C-272.503000,1100.350000,-224.507000,1046.420000,-224.507000,982.213000C-224.507000,912.580000,-281.159000,855.929000,-350.792000,855.929000C-420.426000,855.929000,-477.077000,799.277000,-477.077000,729.643000C-477.077000,660.011000,-420.425000,603.359000,-350.792000,603.359000L-308.696000,603.359000C-262.274000,603.359000,-224.507000,565.593000,-224.507000,519.170000C-224.507000,472.748000,-262.274000,434.981000,-308.696000,434.981000L-547.908000,434.981000C-562.272000,434.981000,-575.642000,427.659000,-583.377000,415.557000C-591.116000,403.452000,-592.144000,388.243000,-586.113000,375.208000C-535.054000,264.876000,-454.108000,171.318000,-352.020000,104.657000C-247.176000,36.191000,-125.448000,0,0,0C135.169000,0,264.711000,41.531000,374.624000,120.102000C389.509000,130.745000,395.815000,149.778000,390.228000,167.201000C384.643000,184.625000,368.438000,196.443000,350.144000,196.443000L154.346000,196.443000C61.502000,196.443000,-14.034000,271.978000,-14.034000,364.823000C-14.034000,457.668000,61.502000,533.204000,154.346000,533.204000L364.820000,533.204000C434.454000,533.204000,491.105000,589.854000,491.105000,659.488000C491.105000,729.122000,434.454000,785.773000,364.820000,785.773000L196.440000,785.773000C173.229000,785.773000,154.344000,804.657000,154.344000,827.869000C154.344000,851.080000,173.229000,869.965000,196.440000,869.965000C266.074000,869.965000,322.724000,926.616000,322.724000,996.249000C322.724000,1065.880000,266.074000,1122.530000,196.440000,1122.530000L28.062000,1122.530000C4.851000,1122.530000,-14.034000,1141.420000,-14.034000,1164.630000C-14.034000,1186.550000,2.385000,1204.570000,24.154000,1206.530000C46.274000,1208.530000,63.033000,1227.370000,62.450000,1249.570000C61.863000,1271.770000,44.130000,1289.690000,21.935000,1290.520000C14.931000,1290.780000,7.549000,1290.910000,0,1290.910000" clip-rule="evenodd" fill="rgb(111,206,231)" stroke="none" stroke-width="1" stroke-miterlimit="10"/></g><g id="e1i80ag8g4vp11" transform="matrix(1 0 0 1 1180.22998046875000 1354.06994628906250)" clip-rule="evenodd"><path id="e1i80ag8g4vp12" d="M0,6.188000L168.380000,6.188000C238.014000,6.188000,294.665000,-50.463000,294.665000,-120.096000C294.665000,-189.730000,238.014000,-246.381000,168.380000,-246.381000L-42.094000,-246.381000C-111.059000,-246.381000,-170.441000,-288.074000,-196.440000,-347.564000L-196.440000,353.752000C-188.985000,347.056000,-179.165000,342.947000,-168.378000,342.947000L0.002000,342.947000C69.636000,342.947000,126.287000,286.295000,126.287000,216.662000C126.287000,147.028000,69.636000,90.376000,0.002000,90.376000C-23.209000,90.376000,-42.094000,71.493000,-42.094000,48.281000C-42.096000,25.073000,-23.212000,6.188000,0,6.188000" clip-rule="evenodd" fill="rgb(73,198,229)" stroke="none" stroke-width="1" stroke-miterlimit="10"/></g><g id="e1i80ag8g4vp13" transform="matrix(1 0 0 1 1138.14001464843750 675.67602539062500)" clip-rule="evenodd"><path id="e1i80ag8g4vp14" d="M0,95.259000L195.797000,95.259000C214.094000,95.259000,230.296000,83.442000,235.881000,66.019000C241.468000,48.597000,235.162000,29.559000,220.276000,18.922000C110.364000,-59.653000,-19.178000,-101.183000,-154.347000,-101.183000L-154.347000,196.442000C-128.348000,136.954000,-68.966000,95.259000,0,95.259000" clip-rule="evenodd" fill="rgb(73,198,229)" stroke="none" stroke-width="1" stroke-miterlimit="10"/></g></g><g id="e1i80ag8g4vp15" transform="matrix(6.67202757495726 0 0 6.67202757495726 -2736.05814600551366 -1408.30282466104472)" clip-rule="evenodd"><g id="e1i80ag8g4vp16" transform="matrix(1 0 0 1 811.12500000000000 289.06900024414063)" clip-rule="evenodd"><path id="e1i80ag8g4vp17" d="M0,173.292000C-18.062000,141.920000,-2.112000,76.300000,31.765000,37.267000C54.671000,10.873000,88.002000,0,115.620000,10.683000C106.827000,20.100000,97.989000,28.943000,89.887000,38.416000C81.721000,47.963000,74.285000,58.135000,67.829000,69.950000C88.911000,51.269000,112.222000,37.923000,140.662000,33.145000C147.018000,47.307000,144.829000,61.539000,137.264000,72.557000C127.092000,87.372000,115.258000,102.467000,100.750000,112.584000C71.428000,133.031000,39.834000,150.220000,9.146000,168.699000C6.517000,170.282000,3.651000,171.473000,0,173.292000Z" clip-rule="evenodd" fill="rgb(12,147,68)" stroke="rgb(6,103,56)" stroke-width="1" stroke-miterlimit="10"/></g><g id="e1i80ag8g4vp18" transform="matrix(1 0 0 1 1554.85998535156250 204.91999816894531)" clip-rule="evenodd"><path id="e1i80ag8g4vp19" d="M0,198.772000L0,102.049000C-1.775000,101.682000,-3.550000,101.315000,-5.324000,100.948000C-14.263000,130.290000,-23.200000,159.631000,-32.571000,190.396000C-47.173000,179.492000,-54.454000,163.371000,-57.648000,145.066000C-62.440000,117.612000,-54.024000,92.786000,-40.824000,69.319000C-26.876000,44.524000,-8.476000,23.646000,16.321000,9.151000C22.364000,5.619000,29.349000,3.698000,38.451000,0C39.167000,8.589000,39.736000,14.076000,40.063000,19.577000C42.002000,52.196000,42.917000,84.911000,46.045000,117.413000C49.478000,153.076000,31.712000,188.417000,0,198.772000Z" clip-rule="evenodd" fill="rgb(12,147,68)" stroke="rgb(6,103,56)" stroke-width="1" stroke-miterlimit="10"/></g><g id="e1i80ag8g4vp20" transform="matrix(1 0 0 1 773.30902099609375 1000.71002197265625)" clip-rule="evenodd"><path id="e1i80ag8g4vp21" d="M0,-159.946000C-20.062000,-134.922000,-39.510000,-110.663000,-58.958000,-86.404000C-58.354000,-86.201000,-57.750000,-85.997000,-57.146000,-85.794000C-30.354000,-102.887000,-3.562000,-119.980000,23.231000,-137.072000C24.940000,-136.207000,26.649000,-135.342000,28.359000,-134.477000C28.359000,-127.090000,29.579000,-119.454000,28.136000,-112.359000C23.278000,-88.460000,10.180000,-69.904000,-10.802000,-57.196000C-41.876000,-38.377000,-73.188000,-19.939000,-104.004000,-0.709000C-114.785000,6.019000,-118.514000,2.533000,-121.163000,-8.299000C-132.315000,-53.893000,-98.649000,-130.592000,-57.185000,-152.464000C-39.047000,-162.031000,-19.995000,-165.965000,0,-159.946000Z" clip-rule="evenodd" fill="rgb(12,147,68)" stroke="rgb(6,103,56)" stroke-width="1" stroke-miterlimit="10"/></g><g id="e1i80ag8g4vp22" transform="matrix(1 0 0 1 1192.90002441406250 162.67399597167969)" clip-rule="evenodd"><path id="e1i80ag8g4vp23" d="M0,64.047000C31.169000,51.048000,60.106000,38.980000,89.043000,26.911000C89.237000,26.177000,89.433000,25.443000,89.628000,24.708000C59.038000,26.644000,28.448000,28.580000,-2.979000,30.569000C5.973000,5.414000,24.783000,-10.634000,49.568000,-16.840000C101.756000,-29.909000,148.599000,-16.284000,189.745000,17.684000C193.183000,20.521000,195.371000,24.870000,199.562000,30.388000C192.988000,33.559000,188.125000,36.068000,183.132000,38.286000C153.334000,51.520000,123.133000,63.910000,93.789000,78.080000C60.916000,93.956000,23.933000,90.520000,0,64.047000Z" clip-rule="evenodd" fill="rgb(12,147,68)" stroke="rgb(6,103,56)" stroke-width="1" stroke-miterlimit="10"/></g><g id="e1i80ag8g4vp24" transform="matrix(1 0 0 1 940.53698730468750 511.43200683593750)" clip-rule="evenodd"><path id="e1i80ag8g4vp25" d="M0,16.962000C15.947000,43.201000,31.894000,69.441000,48.687000,97.073000C29.564000,100.361000,11.913000,95.047000,-3.866000,84.065000C-37.234000,60.840000,-49.779000,25.779000,-54.887000,-12.327000C-56.898000,-27.330000,-55.768000,-42.940000,-54.432000,-58.130000C-53.740000,-65.990000,-49.472000,-73.536000,-46.068000,-83.399000C-39.447000,-78.284000,-35.332000,-75.187000,-31.305000,-71.979000C-5.742000,-51.612000,19.322000,-30.580000,45.482000,-11.014000C72.319000,9.058000,87.818000,41.462000,81.179000,68.122000C80.581000,70.523000,79.277000,72.748000,76.718000,78.797000C50.764000,57.136000,26.391000,36.794000,2.018000,16.451000C1.345000,16.621000,0.672000,16.792000,0,16.962000Z" clip-rule="evenodd" fill="rgb(12,147,68)" stroke="rgb(6,103,56)" stroke-width="1" stroke-miterlimit="10"/></g><g id="e1i80ag8g4vp26" transform="matrix(1 0 0 1 1230.43005371093750 737.48602294921875)" clip-rule="evenodd"><path id="e1i80ag8g4vp27" d="M0,12.514000C11.247000,-21.293000,34.849000,-38.977000,68.065000,-44.681000C116.508000,-53,173.325000,-36.159000,191.968000,-7.657000C188.807000,-5.336000,185.773000,-2.637000,182.327000,-0.654000C153.551000,15.902000,124.481000,31.963000,95.938000,48.911000C74.776000,61.476000,52.662000,65.514000,29.131000,58.509000C22.007000,56.388000,15.704000,51.507000,6.219000,46.369000C22.177000,36.236000,34.658000,27.426000,47.963000,20.115000C60.769000,13.078000,74.427000,7.591000,87.710000,1.423000L87.098000,-2.488000C58.748000,2.395000,30.398000,7.278000,0,12.514000Z" clip-rule="evenodd" fill="rgb(12,147,68)" stroke="rgb(6,103,56)" stroke-width="1" stroke-miterlimit="10"/></g><g id="e1i80ag8g4vp28" transform="matrix(1 0 0 1 921.02697753906250 731.03900146484375)" clip-rule="evenodd"><path id="e1i80ag8g4vp29" d="M0,-16.683000C23.771000,-2.138000,43.920000,14.648000,56.500000,41.173000C35.786000,54.476000,15.663000,50.529000,-3.998000,41.452000C-11.484000,37.996000,-18.146000,32.314000,-24.444000,26.801000C-47.826000,6.333000,-70.849000,-14.545000,-94.150000,-35.107000C-97.234000,-37.829000,-101.145000,-39.615000,-107.780000,-43.787000C-65.093000,-71.159000,-24.960000,-70.467000,15.823000,-56.814000C48.922000,-45.734000,68.845000,-19.229000,69.029000,11.955000C57.375000,6.464000,46.498000,0.835000,35.222000,-3.832000C23.685000,-8.607000,11.757000,-12.439000,0,-16.683000Z" clip-rule="evenodd" fill="rgb(12,147,68)" stroke="rgb(6,103,56)" stroke-width="1" stroke-miterlimit="10"/></g><g id="e1i80ag8g4vp30" transform="matrix(1 0 0 1 969.90301513671875 216.97700500488281)" clip-rule="evenodd"><path id="e1i80ag8g4vp31" d="M0,-9.819000C19.456000,1.633000,41.141000,14.396000,64.004000,27.854000C52.863000,43.958000,39.994000,47.150000,27.065000,46.981000C15.206000,46.827000,1.906000,46.067000,-8.171000,40.708000C-41.501000,22.984000,-73.662000,3.059000,-106.357000,-16.071000C-96.741000,-38.439000,-45.558000,-56.969000,-4.147000,-52.536000C35.836000,-48.256000,61.958000,-28.637000,68.490000,2.964000C55.967000,-0.046000,43.980000,-3.459000,31.779000,-5.706000C20.100000,-7.857000,8.198000,-8.797000,0,-9.819000Z" clip-rule="evenodd" fill="rgb(12,147,68)" stroke="rgb(0,166,80)" stroke-width="1" stroke-miterlimit="10"/></g><g id="e1i80ag8g4vp32" transform="matrix(1 0 0 1 685.19000244140625 779.90502929687500)" clip-rule="evenodd"><path id="e1i80ag8g4vp33" d="M0,-107.171000C-17.183000,-86.923000,-33.025000,-68.254000,-48.868000,-49.585000C-48.492000,-48.712000,-48.117000,-47.838000,-47.741000,-46.964000C-27.404000,-58.829000,-7.066000,-70.693000,13.078000,-82.445000C18.548000,-62.911000,7.144000,-37.409000,-14.573000,-21.759000C-49.223000,3.209000,-106.941000,9.662000,-134.469000,-8.923000C-133.482000,-11.052000,-132.863000,-13.662000,-131.327000,-15.510000C-111.502000,-39.379000,-91.512000,-63.111000,-71.634000,-86.937000C-54,-108.071000,-26.990000,-116.833000,0,-107.171000Z" clip-rule="evenodd" fill="rgb(12,147,68)" stroke="rgb(6,103,56)" stroke-width="1" stroke-miterlimit="10"/></g><g id="e1i80ag8g4vp34" transform="matrix(1 0 0 1 1444 733.02301025390625)" clip-rule="evenodd"><path id="e1i80ag8g4vp35" d="M0,-60.878000C22.959000,-50.614000,44.624000,-40.930000,66.289000,-31.246000C67.501000,-32.666000,68.713000,-34.085000,69.925000,-35.505000C54.305000,-52.338000,38.685000,-69.171000,21.880000,-87.280000C48.809000,-95.134000,70.223000,-87.230000,87.795000,-69.567000C115.632000,-41.589000,131.192000,-8.492000,125.957000,34.256000C120.063000,31.994000,116.200000,30.747000,112.536000,29.068000C88.170000,17.903000,64.009000,6.275000,39.464000,-4.477000C14.356000,-15.476000,-0.893000,-36.003000,0,-60.878000Z" clip-rule="evenodd" fill="rgb(12,147,68)" stroke="rgb(6,103,56)" stroke-width="1" stroke-miterlimit="10"/></g><g id="e1i80ag8g4vp36" transform="matrix(1 0 0 1 1242.29003906250000 269.70498657226563)" clip-rule="evenodd"><path id="e1i80ag8g4vp37" d="M0,82.172000C15.027000,65.955000,29.506000,50.330000,42.847000,35.934000C27.034000,42.911000,8.177000,51.232000,-11.473000,59.901000C-11.429000,35.402000,1.356000,19.103000,21.092000,7.617000C53.027000,-10.968000,102.277000,-11.201000,128.419000,6.611000C128.197000,8.002000,128.513000,10.083000,127.634000,10.939000C105.036000,32.979000,83.012000,55.682000,59.380000,76.563000C42.046000,91.880000,19.755000,93.373000,0,82.172000Z" clip-rule="evenodd" fill="rgb(12,147,68)" stroke="rgb(6,103,56)" stroke-width="1" stroke-miterlimit="10"/></g><g id="e1i80ag8g4vp38" transform="matrix(1 0 0 1 1682.02001953125000 833.08001708984375)" clip-rule="evenodd"><path id="e1i80ag8g4vp39" d="M0,-62.197000C-24.161000,-39.348000,-46.518000,-16.352000,-70.923000,4.214000C-86.929000,17.703000,-106.646000,20.261000,-130.655000,9.714000C-111.688000,-7.393000,-94.748000,-22.672000,-77.809000,-37.950000C-77.935000,-38.544000,-78.060000,-39.139000,-78.185000,-39.733000C-98.176000,-31.298000,-118.168000,-22.863000,-138.020000,-14.487000C-141.077000,-31.692000,-129.186000,-52.022000,-108.608000,-64.036000C-77.056000,-82.458000,-23.542000,-81.829000,0,-62.197000Z" clip-rule="evenodd" fill="rgb(12,147,68)" stroke="rgb(6,103,56)" stroke-width="1" stroke-miterlimit="10"/></g><g id="e1i80ag8g4vp40" transform="matrix(1 0 0 1 840.74902343750000 454.22399902343750)" clip-rule="evenodd"><path id="e1i80ag8g4vp41" d="M0,65.559000C-20.506000,55.975000,-38.303000,47.657000,-56.099000,39.339000C-57.190000,40.522000,-58.282000,41.705000,-59.373000,42.889000C-45.485000,55.833000,-31.598000,68.777000,-16.136000,83.190000C-38.011000,90.142000,-57.231000,86.619000,-72.999000,73.025000C-102.063000,47.969000,-116.564000,16.020000,-113.535000,-22.544000C-111.089000,-23.579000,-109.864000,-24.583000,-109.236000,-24.293000C-81.148000,-11.323000,-52.475000,0.580000,-25.301000,15.258000C-7.968000,24.620000,2.286000,40.611000,0,65.559000Z" clip-rule="evenodd" fill="rgb(12,147,68)" stroke="rgb(6,103,56)" stroke-width="1" stroke-miterlimit="10"/></g><g id="e1i80ag8g4vp42" transform="matrix(1 0 0 1 677.33099365234375 309.17700195312500)" clip-rule="evenodd"><path id="e1i80ag8g4vp43" d="M0,106.554000C-3.906000,105.162000,-10.994000,104.158000,-11.218000,102.317000C-13.135000,86.575000,-18.175000,69.396000,-13.964000,55.095000C-4.572000,23.195000,19.418000,2.227000,49.832000,-10.787000C54.770000,-12.901000,60.688000,-12.722000,67.207000,-13.773000C63.135000,19.723000,60.482000,51.518000,55.020000,82.824000C51.658000,102.093000,37.860000,113.859000,16.153000,120.327000C18.546000,98.601000,20.786000,78.271000,23.025000,57.942000C21.725000,57.372000,20.425000,56.802000,19.125000,56.232000C12.572000,73.153000,6.020000,90.075000,-0.489000,106.958000C-0.445000,106.920000,0,106.554000,0,106.554000Z" clip-rule="evenodd" fill="rgb(12,147,68)" stroke="rgb(6,103,56)" stroke-width="1" stroke-miterlimit="10"/></g><g id="e1i80ag8g4vp44" transform="matrix(1 0 0 1 559.08801269531250 554.79797363281250)" clip-rule="evenodd"><path id="e1i80ag8g4vp45" d="M0,-114.935000C28.269000,-102.185000,55.894000,-90.511000,82.784000,-77.335000C102.195000,-67.823000,112.295000,-47.884000,109.701000,-25.581000C90.712000,-34.383000,72.510000,-42.820000,54.308000,-51.256000L52.281000,-49.333000C65.910000,-36.252000,79.540000,-23.170000,93.304000,-9.960000C77.458000,0,54.337000,-3.574000,36.459000,-18.076000C8.145000,-41.043000,-9.895000,-88.613000,0,-114.935000Z" clip-rule="evenodd" fill="rgb(12,147,68)" stroke="rgb(6,103,56)" stroke-width="1" stroke-miterlimit="10"/></g><g id="e1i80ag8g4vp46" transform="matrix(1 0 0 1 1415.26000976562500 398.17199707031250)" clip-rule="evenodd"><path id="e1i80ag8g4vp47" d="M0,-137.944000C8.071000,-107.574000,17.265000,-77.484000,23.765000,-46.822000C27.620000,-28.636000,18.642000,-12.376000,1.674000,0C-3.745000,-20.555000,-8.900000,-40.111000,-15.130000,-63.741000C-17.050000,-50.750000,-18.968000,-41.480000,-19.650000,-32.120000C-20.340000,-22.689000,-19.803000,-13.169000,-19.803000,-3.464000C-37.156000,-8.243000,-48.405000,-25.998000,-49.267000,-48.842000C-50.631000,-85.065000,-27.074000,-128.079000,0,-137.944000Z" clip-rule="evenodd" fill="rgb(12,147,68)" stroke="rgb(6,103,56)" stroke-width="1" stroke-miterlimit="10"/></g><g id="e1i80ag8g4vp48" transform="matrix(1 0 0 1 1017.11999511718750 943.47900390625000)" clip-rule="evenodd"><path id="e1i80ag8g4vp49" d="M0,9.578000C15.234000,-1.269000,30.468000,-12.116000,45.632000,-22.914000C51.463000,-6.111000,45.180000,13.544000,27.681000,27.504000C0.175000,49.449000,-30.717000,56.684000,-68.257000,47.190000C-61.261000,37.909000,-55.709000,31.146000,-50.822000,23.932000C-41.360000,9.965000,-32.203000,-4.212000,-23.045000,-18.383000C-10.214000,-38.238000,9.014000,-47.106000,33.596000,-42.107000C21.670000,-24.837000,10.482000,-8.635000,-0.707000,7.567000C-0.471000,8.237000,-0.235000,8.908000,0,9.578000Z" clip-rule="evenodd" fill="rgb(12,147,68)" stroke="rgb(6,103,56)" stroke-width="1" stroke-miterlimit="10"/></g><g id="e1i80ag8g4vp50" transform="matrix(1 0 0 1 1164.28002929687500 460.50500488281250)" clip-rule="evenodd"><path id="e1i80ag8g4vp51" d="M0,130.324000C-23.273000,125.240000,-36.739000,111.492000,-42.690000,91.053000C-51.777000,59.845000,-48.693000,30.065000,-28.027000,0C-22.643000,7.956000,-18.874000,13.906000,-14.726000,19.579000C-4.167000,34.019000,6.354000,48.493000,17.271000,62.661000C32.051000,81.845000,34.003000,103.304000,20.570000,122.485000C9.433000,107.387000,-1.254000,92.900000,-11.940000,78.413000L-14.633000,79.244000C-9.971000,95.519000,-5.309000,111.794000,0,130.324000Z" clip-rule="evenodd" fill="rgb(12,147,68)" stroke="rgb(6,103,56)" stroke-width="1" stroke-miterlimit="10"/></g><g id="e1i80ag8g4vp52" transform="matrix(1 0 0 1 602.01300048828125 651.59497070312500)" clip-rule="evenodd"><path id="e1i80ag8g4vp53" d="M0,-48.628000C0.096000,-26.892000,-9.115000,-12.900000,-24.284000,-5.948000C-50.828000,6.218000,-78.742000,15.395000,-108.797000,26.861000C-110.769000,-5.350000,-98.015000,-29.675000,-77.887000,-50.526000C-60.983000,-68.037000,-40.507000,-75.489000,-14.135000,-65.804000C-28.003000,-53.922000,-40.828000,-42.934000,-53.652000,-31.946000C-53.155000,-31.050000,-52.658000,-30.155000,-52.160000,-29.260000C-35.643000,-35.393000,-19.126000,-41.526000,0,-48.628000Z" clip-rule="evenodd" fill="rgb(12,147,68)" stroke="rgb(6,103,56)" stroke-width="1" stroke-miterlimit="10"/></g><g id="e1i80ag8g4vp54" transform="matrix(1 0 0 1 1366.92004394531250 601.36499023437500)" clip-rule="evenodd"><path id="e1i80ag8g4vp55" d="M0,-101.776000C-14.117000,-72.544000,-25.448000,-45.984000,-39.568000,-21.001000C-48.039000,-6.013000,-62.714000,2.682000,-84.689000,0.573000C-76.149000,-17.526000,-68.480000,-33.777000,-60.813000,-50.028000C-61.731000,-50.924000,-62.651000,-51.821000,-63.570000,-52.717000C-74.985000,-40.283000,-86.400000,-27.849000,-99.956000,-13.083000C-107.788000,-34.268000,-103.305000,-50.971000,-91.730000,-64.893000C-68.781000,-92.496000,-38.750000,-104.458000,0,-101.776000Z" clip-rule="evenodd" fill="rgb(12,147,68)" stroke="rgb(6,103,56)" stroke-width="1" stroke-miterlimit="10"/></g><g id="e1i80ag8g4vp56" transform="matrix(1 0 0 1 1130.80004882812500 425.75000000000000)" clip-rule="evenodd"><path id="e1i80ag8g4vp57" d="M0,-110.262000C38.422000,-110.088000,65.941000,-95.007000,86.797000,-67.642000C98.576000,-52.187000,100.634000,-34.582000,92.855000,-14.977000C79.883000,-29.990000,67.997000,-43.742000,56.112000,-57.495000C55.521000,-57.081000,54.928000,-56.666000,54.336000,-56.252000C61.226000,-38.688000,68.116000,-21.123000,75.934000,-1.196000C54.748000,0,40.807000,-9.111000,33.894000,-23.926000C21.340000,-50.828000,11.965000,-79.214000,0,-110.262000Z" clip-rule="evenodd" fill="rgb(12,147,68)" stroke="rgb(6,103,56)" stroke-width="1" stroke-miterlimit="10"/></g><g id="e1i80ag8g4vp58" transform="matrix(1 0 0 1 1082.23999023437500 117.44699859619141)" clip-rule="evenodd"><path id="e1i80ag8g4vp59" d="M0,131.582000C-1.752000,110.010000,-3.188000,92.330000,-4.623000,74.650000C-5.411000,74.317000,-6.200000,73.983000,-6.988000,73.650000C-11.746000,90.158000,-16.505000,106.665000,-21.634000,124.461000C-38.255000,111.092000,-42.460000,93.192000,-38.282000,73.899000C-31,40.268000,-12.271000,15.069000,21.275000,0C22.504000,4.982000,23.658000,7.857000,23.868000,10.799000C25.517000,33.931000,27.140000,57.066000,28.465000,80.218000C29.666000,101.218000,22.685000,118.091000,0,131.582000Z" clip-rule="evenodd" fill="rgb(12,147,68)" stroke="rgb(6,103,56)" stroke-width="1" stroke-miterlimit="10"/></g><g id="e1i80ag8g4vp60" transform="matrix(1 0 0 1 1373.39001464843750 984.39599609375000)" clip-rule="evenodd"><path id="e1i80ag8g4vp61" d="M0,-60.439000C19.291000,-51.127000,36.134000,-42.998000,52.976000,-34.868000C53.472000,-35.250000,53.968000,-35.631000,54.464000,-36.013000C41.532000,-48.475000,28.602000,-60.937000,15.476000,-73.586000C30.401000,-82.829000,48.914000,-80.321000,65.334000,-67.720000C92.020000,-47.242000,108.660000,-4.862000,99.951000,22.390000C72.563000,9.183000,44.604000,-2.764000,18.292000,-17.626000C4.844000,-25.223000,-2.671000,-39.385000,0,-60.439000Z" clip-rule="evenodd" fill="rgb(12,147,68)" stroke="rgb(6,103,56)" stroke-width="1" stroke-miterlimit="10"/></g><g id="e1i80ag8g4vp62" transform="matrix(1 0 0 1 1290.08996582031250 410.46701049804688)" clip-rule="evenodd"><path id="e1i80ag8g4vp63" d="M0,17.319000C-11.789000,32.834000,-23.578000,48.348000,-36.771000,65.711000C-47.912000,45.804000,-47.060000,28.532000,-36.834000,13.637000C-20.854000,-9.638000,-2.576000,-31.334000,16.013000,-55.360000C35.905000,-29.166000,36.771000,-0.746000,29.906000,28.625000C24.478000,51.853000,10.352000,67.168000,-15.335000,72.679000C-9.329000,53.286000,-3.833000,35.538000,1.662000,17.791000C1.108000,17.634000,0.554000,17.476000,0,17.319000Z" clip-rule="evenodd" fill="rgb(12,147,68)" stroke="rgb(6,103,56)" stroke-width="1" stroke-miterlimit="10"/></g><g id="e1i80ag8g4vp64" transform="matrix(1 0 0 1 982.53002929687500 332.69601440429688)" clip-rule="evenodd"><path id="e1i80ag8g4vp65" d="M0,128.885000C6.163000,109.260000,11.758000,91.444000,17.353000,73.628000C16.751000,73.433000,16.149000,73.239000,15.547000,73.044000C3.872000,88.620000,-7.803000,104.197000,-20.810000,121.549000C-32.317000,103.520000,-32.068000,86.822000,-22.958000,73.024000C-6.586000,48.231000,12.587000,25.287000,31.782000,0C51.181000,27.483000,52.537000,56.083000,45.243000,85.560000C39.645000,108.187000,25.545000,123.435000,0,128.885000Z" clip-rule="evenodd" fill="rgb(12,147,68)" stroke="rgb(6,103,56)" stroke-width="1" stroke-miterlimit="10"/></g><g id="e1i80ag8g4vp66" transform="matrix(1 0 0 1 1507.06005859375000 589.18701171875000)" clip-rule="evenodd"><path id="e1i80ag8g4vp67" d="M0,-12.667000C12.489000,-31.934000,28.953000,-40.413000,49.852000,-39.359000C81.697000,-37.753000,108.418000,-25.873000,128.839000,2.623000C106.251000,9.388000,86.056000,16.036000,65.517000,21.357000C53.542000,24.460000,40.806000,27.746000,28.806000,26.647000C19.140000,25.762000,10.064000,18.424000,0.727000,13.949000C1.145000,12.040000,1.562000,10.131000,1.979000,8.223000C18.906000,3.184000,35.833000,-1.854000,52.761000,-6.893000C52.974000,-7.778000,53.187000,-8.665000,53.399000,-9.551000C36.493000,-10.537000,19.587000,-11.524000,0,-12.667000Z" clip-rule="evenodd" fill="rgb(12,147,68)" stroke="rgb(6,103,56)" stroke-width="1" stroke-miterlimit="10"/></g><g id="e1i80ag8g4vp68" transform="matrix(1 0 0 1 1691.15002441406250 668.39697265625000)" clip-rule="evenodd"><path id="e1i80ag8g4vp69" d="M0,11.980000C-32.978000,47.375000,-99.241000,38.688000,-113.766000,-3.432000C-97.850000,-0.203000,-82.641000,2.884000,-67.432000,5.970000C-67.264000,5.249000,-67.095000,4.528000,-66.927000,3.807000C-80.558000,-4.624000,-94.188000,-13.056000,-109.555000,-22.561000C-93.009000,-35.395000,-77.307000,-35.226000,-62.482000,-26.920000C-41.487000,-15.156000,-21.526000,-1.546000,0,11.980000Z" clip-rule="evenodd" fill="rgb(12,147,68)" stroke="rgb(6,103,56)" stroke-width="1" stroke-miterlimit="10"/></g><g id="e1i80ag8g4vp70" transform="matrix(1 0 0 1 1570.25000000000000 437.31600952148438)" clip-rule="evenodd"><path id="e1i80ag8g4vp71" d="M0,96.228000C6.126000,79.400000,11.597000,64.373000,17.066000,49.345000C16.558000,48.929000,16.049000,48.512000,15.539000,48.096000C5.641000,59.910000,-4.258000,71.725000,-14.211000,83.603000C-23.319000,67.408000,-21.065000,49.640000,-6.915000,33.136000C11.229000,11.974000,33.769000,0,64.254000,0.017000C54.713000,27.003000,47.131000,51.524000,37.305000,75.110000C31.198000,89.770000,18.740000,95.854000,0,96.228000Z" clip-rule="evenodd" fill="rgb(12,147,68)" stroke="rgb(6,103,56)" stroke-width="1" stroke-miterlimit="10"/></g><g id="e1i80ag8g4vp72" transform="matrix(1 0 0 1 1400.57995605468750 774.30603027343750)" clip-rule="evenodd"><path id="e1i80ag8g4vp73" d="M0,48.611000C14.894000,38.546000,27.395000,30.098000,39.896000,21.650000C39.745000,21.022000,39.596000,20.393000,39.445000,19.765000C25.569000,23.146000,11.694000,26.528000,-2.101000,29.889000C-1.354000,14.410000,8.407000,2.075000,27.124000,-3.018000C54.077000,-10.351000,79.795000,-8.023000,103.492000,10.914000C82.460000,25.181000,63.459000,39.291000,43.232000,51.346000C30.560000,58.899000,16.239000,58.962000,0,48.611000Z" clip-rule="evenodd" fill="rgb(12,147,68)" stroke="rgb(6,103,56)" stroke-width="1" stroke-miterlimit="10"/></g><g id="e1i80ag8g4vp74" transform="matrix(1 0 0 1 1272.46997070312500 940.20898437500000)" clip-rule="evenodd"><path id="e1i80ag8g4vp75" d="M0,-3.273000C-12.406000,-9.333000,-24.812000,-15.392000,-38.451000,-22.055000C-22.545000,-33.999000,-6.572000,-34.478000,9.457000,-26.335000C32.782000,-14.485000,49.905000,2.763000,55.243000,31.205000C29.638000,28.581000,5.554000,27.345000,-18.022000,23.210000C-30.967000,20.940000,-41.640000,12.364000,-45.707000,-4.883000C-29.941000,-3.642000,-15.681000,-2.520000,-1.420000,-1.398000C-0.947000,-2.023000,-0.474000,-2.648000,0,-3.273000Z" clip-rule="evenodd" fill="rgb(12,147,68)" stroke="rgb(6,103,56)" stroke-width="1" stroke-miterlimit="10"/></g><g id="e1i80ag8g4vp76" transform="matrix(1 0 0 1 707.46801757812500 623.53399658203125)" clip-rule="evenodd"><path id="e1i80ag8g4vp77" d="M0,-21.286000C-0.517000,-4.661000,-8.605000,6.200000,-22.218000,12.824000C-44.627000,23.726000,-67.282000,24.845000,-90.444000,13.521000C-64.850000,-26,-32.318000,-46.131000,-5.883000,-35.738000C-16.690000,-26.187000,-26.323000,-17.675000,-35.956000,-9.161000C-35.470000,-8.149000,-34.984000,-7.137000,-34.498000,-6.124000C-23.299000,-11.046000,-12.101000,-15.968000,0,-21.286000Z" clip-rule="evenodd" fill="rgb(12,147,68)" stroke="rgb(6,103,56)" stroke-width="1" stroke-miterlimit="10"/></g><g id="e1i80ag8g4vp78" transform="matrix(1 0 0 1 780.16900634765625 714.94299316406250)" clip-rule="evenodd"><path id="e1i80ag8g4vp79" d="M0,-4.474000C5.986000,-15.240000,11.971000,-26.005000,18.448000,-37.652000C29.056000,-21.828000,27.625000,-6.775000,19.018000,7.712000C7.332000,27.381000,-9.072000,40.868000,-34.517000,43.087000C-19.771000,14.910000,-40.252000,-26.137000,3.673000,-47.561000C1.518000,-30.974000,-0.152000,-18.126000,-1.821000,-5.279000C-1.214000,-5.011000,-0.607000,-4.743000,0,-4.474000Z" clip-rule="evenodd" fill="rgb(12,147,68)" stroke="rgb(6,103,56)" stroke-width="1" stroke-miterlimit="10"/></g><g id="e1i80ag8g4vp80" transform="matrix(1 0 0 1 852.84997558593750 894.95202636718750)" clip-rule="evenodd"><path id="e1i80ag8g4vp81" d="M0,-12.497000C5.427000,-22.347000,10.855000,-32.197000,17.142000,-43.606000C26.750000,-29.711000,26.722000,-16.285000,20.216000,-3.038000C9.252000,19.288000,-8.045000,33.941000,-35.715000,39.785000C-31.490000,14.717000,-29.087000,-8.261000,-23.157000,-30.290000C-20.883000,-38.736000,-10.558000,-45.015000,-3.902000,-52.282000C-2.106000,-51.294000,-0.311000,-50.307000,1.484000,-49.319000C0.232000,-37.360000,-1.021000,-25.401000,-2.273000,-13.441000C-1.515000,-13.126000,-0.758000,-12.812000,0,-12.497000Z" clip-rule="evenodd" fill="rgb(12,147,68)" stroke="rgb(6,103,56)" stroke-width="1" stroke-miterlimit="10"/></g><g id="e1i80ag8g4vp82" transform="matrix(1 0 0 1 863.33099365234375 776.30401611328125)" clip-rule="evenodd"><path id="e1i80ag8g4vp83" d="M0,11.175000C-13.207000,7.366000,-24.104000,4.223000,-35.001000,1.080000C-35.289000,1.801000,-35.577000,2.523000,-35.865000,3.245000C-26.096000,10.600000,-16.327000,17.956000,-5.646000,25.998000C-19.156000,36.737000,-32.105000,34.404000,-43.373000,27.343000C-60.166000,16.819000,-75.728000,4.330000,-94.187000,-9.042000C-75.637000,-22.096000,-56.608000,-25.562000,-35.980000,-21.656000C-18.342000,-18.315000,-5.053000,-9.539000,0,11.175000Z" clip-rule="evenodd" fill="rgb(12,147,68)" stroke="rgb(6,103,56)" stroke-width="1" stroke-miterlimit="10"/></g><g id="e1i80ag8g4vp84" transform="matrix(1 0 0 1 625.72601318359375 773.79498291015625)" clip-rule="evenodd"><path id="e1i80ag8g4vp85" d="M0,70.806000C4.922000,28.445000,49.114000,0,78.500000,19.877000C68.359000,25.596000,58.515000,31.148000,48.671000,36.700000C48.916000,37.399000,49.161000,38.097000,49.406000,38.796000C61.305000,37.286000,73.205000,35.776000,86.463000,34.094000C83.986000,50.299000,74.202000,58.212000,61.765000,60.970000C41.922000,65.370000,21.576000,67.496000,0,70.806000Z" clip-rule="evenodd" fill="rgb(12,147,68)" stroke="rgb(6,103,56)" stroke-width="1" stroke-miterlimit="10"/></g><g id="e1i80ag8g4vp86" transform="matrix(1 0 0 1 1562.51000976562500 868.23199462890625)" clip-rule="evenodd"><path id="e1i80ag8g4vp87" d="M0,57.937000C-22.233000,55.929000,-42.109000,55.026000,-61.671000,52.050000C-74.471000,50.103000,-84.575000,42.602000,-90.427000,26.139000C-75.618000,27.270000,-63.029000,28.231000,-45.628000,29.561000C-60.012000,22.249000,-70.645000,16.845000,-82.717000,10.709000C-70.591000,0.397000,-57.564000,0,-44.754000,5.374000C-21.872000,14.975000,-5.866000,31.157000,0,57.937000Z" clip-rule="evenodd" fill="rgb(12,147,68)" stroke="rgb(6,103,56)" stroke-width="1" stroke-miterlimit="10"/></g><g id="e1i80ag8g4vp88" transform="matrix(1 0 0 1 1461.20996093750000 446.72799682617188)" clip-rule="evenodd"><path id="e1i80ag8g4vp89" d="M0,88.234000C2.101000,73.796000,3.949000,61.085000,5.799000,48.374000C5.265000,48.065000,4.730000,47.755000,4.197000,47.446000C-1.835000,58.059000,-7.866000,68.672000,-14.560000,80.450000C-24.545000,64.969000,-23.447000,50.562000,-15.042000,36.587000C-3.254000,16.989000,13.016000,3.609000,37.939000,0C34.315000,22.459000,31.967000,42.715000,27.524000,62.502000C24.684000,75.153000,16.535000,84.771000,0,88.234000Z" clip-rule="evenodd" fill="rgb(12,147,68)" stroke="rgb(6,103,56)" stroke-width="1" stroke-miterlimit="10"/></g><g id="e1i80ag8g4vp90" transform="matrix(1 0 0 1 923.21697998046875 843.97900390625000)" clip-rule="evenodd"><path id="e1i80ag8g4vp91" d="M0,84.830000C-14.070000,45.597000,15.102000,0,49.756000,6.270000C42.566000,16.087000,35.536000,25.684000,28.506000,35.281000C28.981000,35.804000,29.456000,36.326000,29.930000,36.848000C40.412000,29.982000,50.893000,23.116000,62.730000,15.362000C67.506000,31.691000,61.530000,43.201000,50.924000,51.193000C35.033000,63.169000,17.726000,73.267000,0,84.830000Z" clip-rule="evenodd" fill="rgb(12,147,68)" stroke="rgb(6,103,56)" stroke-width="1" stroke-miterlimit="10"/></g><g id="e1i80ag8g4vp92" transform="matrix(1 0 0 1 1148.41003417968750 153.01600646972656)" clip-rule="evenodd"><path id="e1i80ag8g4vp93" d="M0,14.137000C-4.804000,22.115000,-9.607000,30.093000,-14.509000,38.232000C-32.262000,11.350000,-5.472000,-27.967000,32.631000,-31.725000C37.880000,0.929000,20.721000,41.507000,-1.660000,45.862000C-0.071000,35.179000,1.440000,25.015000,2.952000,14.853000C1.968000,14.614000,0.983000,14.376000,0,14.137000Z" clip-rule="evenodd" fill="rgb(12,147,68)" stroke="rgb(6,103,56)" stroke-width="1" stroke-miterlimit="10"/></g></g><g id="e1i80ag8g4vp94" transform="matrix(4.16666984558105 0 0 4.16666984558105 0 1500)" clip-rule="evenodd"><g id="e1i80ag8g4vp95" transform="matrix(1 0 0 1 811.33197021484375 1207.91003417968750)" clip-rule="evenodd"><path id="e1i80ag8g4vp96" d="M0,775.340000L0.688000,628.781000L-22.490000,576.081000L-17.839000,551.368000L-175.234000,305.269000L-211.984000,221.634000L-212.071000,211.002000L-232.764000,153.410000L-248.009000,69.629000L-245.694000,34.018000L-226.541000,2.369000L-200.687000,-0.194000L-186.583000,6.736000L-170.559000,33.567000L-148.323000,93.193000L-137.427000,151.367000L-112.724000,205.488000L-89.028000,257.708000L-68.086000,281.542000L-18.746000,300.625000L31.457000,310.427000L54.027000,307.576000L115.917000,292.731000L134.485000,279.524000L209.861000,279.524000L301.557000,280.352000L318.469000,280.352000L330.564000,269.774000L366.085000,288.756000L470.983000,279.263000L495.575000,266.010000L517.307000,212.036000L522.041000,190.293000L520.958000,169.359000L527.477000,143.477000L527.477000,123.910000L554.208000,80.380000L571.051000,55.618000L595.807000,35.464000L635.649000,33.754000L650.063000,51.429000L653.190000,90.822000L646.949000,122.335000L633.140000,148.811000L620.522000,266.579000L625.586000,321.637000L613.458000,382.531000L584.771000,430.823000L514.516000,496.574000L469.445000,525.037000L427.280000,588.694000L427.280000,662.214000L430.593000,708.572000L430.593000,775.534000L0,775.340000Z" clip-rule="evenodd" fill="rgb(255,255,255)" stroke="none" stroke-width="1" stroke-miterlimit="10"/></g><g id="e1i80ag8g4vp97" transform="matrix(1 0 0 1 763.31701660156250 1097.47998046875000)" clip-rule="evenodd"><path id="e1i80ag8g4vp98" d="M0,382.693000C-15.222000,370.671000,-22.803000,355.369000,-36.936000,326.845000C-45.577000,309.404000,-50.457000,294.902000,-59.864000,266.610000C-70.370000,235.015000,-73.418000,221.630000,-85.439000,181.775000C-101.629000,128.100000,-100.855000,136.614000,-105.430000,118.246000C-113.177000,87.140000,-133.173000,6.857000,-100.516000,-19.161000C-98.776000,-20.547000,-88.854000,-28.452000,-76.869000,-27.043000C-66.313000,-25.802000,-59.674000,-17.987000,-47.071000,-2.699000C-34.431000,12.632000,-27.375000,21.191000,-22.787000,35.082000C-16.103000,55.315000,-23.837000,59.057000,-15.845000,77.654000C-10.532000,90.016000,-5.938000,91.100000,0.149000,106.827000C4.967000,119.276000,2.950000,120.823000,7.379000,131.902000C14.489000,149.686000,21.050000,149.115000,26.697000,162.995000C34.835000,182.994000,23.192000,189.047000,31.275000,206.464000C38.669000,222.399000,50.376000,221.559000,54.994000,237.796000C58.177000,248.990000,52.943000,250.547000,55.107000,263.810000C57.916000,281.022000,69.113000,292.998000,80.391000,305.060000C93.105000,318.660000,95.434000,316.355000,102.369000,325.012000C114.810000,340.544000,123.235000,367.835000,113.951000,384.251000C98.740000,411.145000,35.104000,410.419000,0,382.693000" clip-rule="evenodd" fill="rgb(255,255,255)" stroke="none" stroke-width="1" stroke-miterlimit="10"/></g><g id="e1i80ag8g4vp99" transform="matrix(1 0 0 1 762.15197753906250 1395.59997558593750)" clip-rule="evenodd"><path id="e1i80ag8g4vp100" d="M0,-316.691000C1.418000,-337.643000,2.641000,-355.712000,16.267000,-365.740000C24.254000,-371.619000,36.397000,-374.657000,46.550000,-370.663000C55.014000,-367.334000,59.222000,-360.244000,66.544000,-345.301000C82.714000,-312.300000,92.916000,-284.169000,94.372000,-280.121000C103.554000,-254.580000,103.853000,-250.961000,110.154000,-237.543000C115.924000,-225.256000,118.085000,-223.156000,120.002000,-214.971000C123.746000,-198.989000,119.279000,-190.892000,125.452000,-181.518000C129.817000,-174.889000,134.750000,-174.838000,141.868000,-170.067000C145.772000,-167.449000,154.215000,-160.809000,168.736000,-113.981000C178.953000,-81.036000,178.667000,-71.768000,189.483000,-61.668000C193.285000,-58.116000,197.357000,-55.492000,201.198000,-49.034000C206.041000,-40.890000,204.428000,-36.892000,209.272000,-19.975000C213.007000,-6.934000,214.708000,-6.716000,214.420000,-1.448000C214.095000,4.512000,211.684000,8.503000,202.285000,22.057000C192.221000,36.571000,187.188000,43.829000,185.772000,44.978000C169.771000,57.966000,147.714000,54.366000,143.378000,53.556000C119.100000,49.017000,105.751000,30.137000,103.534000,26.891000C88.999000,5.609000,100.190000,-6.620000,85.484000,-32.414000C74.144000,-52.303000,66.180000,-47.327000,58.015000,-65.685000C49.167000,-85.577000,56.741000,-95.415000,47.528000,-121.706000C42.245000,-136.783000,39.676000,-133.771000,32.629000,-150.586000C21.888000,-176.219000,27.295000,-184.564000,17.934000,-221.246000C12.366000,-243.066000,10.367000,-240.448000,5.642000,-261.195000C2.479000,-275.083000,-1.571000,-293.486000,0,-316.691000" clip-rule="evenodd" fill="rgb(255,255,255)" stroke="none" stroke-width="1" stroke-miterlimit="10"/></g><g id="e1i80ag8g4vp101" transform="matrix(1 0 0 1 887.39202880859375 1326.10998535156250)" clip-rule="evenodd"><path id="e1i80ag8g4vp102" d="M0,-247.457000C7.762000,-258.930000,22.801000,-268.818000,37.237000,-266.929000C54.939000,-264.611000,65.184000,-245.441000,77.200000,-222.190000C87.880000,-201.524000,88.772000,-192.969000,99.568000,-162.025000C115.797000,-115.509000,123.912000,-92.251000,135.763000,-67.069000C140.123000,-57.805000,148.729000,-40.165000,148.121000,-16.878000C147.862000,-6.985000,147.585000,3.675000,140.511000,9.950000C127.646000,21.361000,98.058000,13.170000,79.898000,-2.138000C60.800000,-18.236000,64.917000,-33.294000,47.752000,-78.069000C30.250000,-123.720000,20.410000,-122.572000,5.563000,-166.941000C-5.291000,-199.378000,-14.018000,-226.737000,0,-247.457000" clip-rule="evenodd" fill="rgb(255,255,255)" stroke="none" stroke-width="1" stroke-miterlimit="10"/></g></g><g id="e1i80ag8g4vp103" transform="matrix(4.16666984558105 0 0 4.16666984558105 6085.52978515625000 6042.43017578125000)" clip-rule="evenodd"><g id="e1i80ag8g4vp104" clip-rule="evenodd"><path id="e1i80ag8g4vp105" d="M0,-962.197000L0,-949.716000C-22.953000,-900.370000,-57.263000,-862.187000,-89.729000,-820.098000C-91.322000,-818.064000,-93.138000,-817.679000,-94.732000,-815.122000C-96.684000,-811.933000,-99.131000,-809.761000,-102.209000,-805.144000C-103.364000,-803.384000,-108.697000,-794.284000,-114.663000,-795.192000C-116.642000,-783.618000,-119.528000,-775.673000,-124.642000,-765.254000C-128.738000,-756.925000,-138.497000,-748.595000,-139.596000,-740.348000C-140.943000,-730.204000,-131.569000,-715.387000,-132.119000,-700.460000C-138.001000,-694.576000,-142.429000,-687.346000,-149.575000,-680.529000C-150.428000,-679.705000,-153.698000,-681.353000,-154.551000,-680.529000C-155.376000,-679.676000,-153.727000,-676.377000,-154.551000,-675.526000C-158.895000,-670.989000,-162.496000,-668.680000,-167.005000,-663.072000C-174.757000,-653.478000,-178.056000,-647.128000,-179.485000,-625.685000C-180.915000,-603.968000,-177.012000,-583.048000,-176.983000,-565.866000C-176.956000,-554.760000,-180.667000,-544.974000,-179.485000,-533.454000C-177.946000,-518.885000,-167.170000,-503.078000,-167.005000,-488.589000C-166.922000,-479.104000,-171.843000,-473.552000,-167.005000,-463.657000C-161.809000,-452.961000,-150.099000,-447.383000,-152.050000,-436.220000C-169.177000,-427.066000,-187.458000,-434.598000,-204.392000,-438.722000C-206.150000,-429.100000,-193.614000,-426.104000,-189.437000,-416.290000C-184.323000,-404.249000,-187.374000,-387.644000,-184.461000,-368.925000C-183.609000,-363.426000,-181.188000,-357.267000,-179.485000,-351.467000C-177.918000,-346.245000,-175.252000,-340.607000,-174.481000,-336.513000C-169.644000,-310.177000,-174.812000,-275.977000,-172.008000,-246.782000C-170.716000,-233.671000,-164.366000,-221.820000,-164.530000,-211.898000C-164.641000,-204.308000,-169.203000,-196.311000,-169.506000,-189.466000C-169.946000,-178.964000,-165.354000,-170.963000,-169.506000,-162.028000C-172.062000,-156.504000,-176.901000,-151.666000,-181.960000,-144.573000C-185.671000,-139.405000,-187.155000,-134.568000,-189.437000,-132.119000C-192.186000,-129.179000,-194.440000,-132.119000,-194.440000,-132.119000C-196.639000,-131.021000,-195.100000,-129.260000,-196.914000,-127.144000C-198.426000,-125.413000,-201.945000,-125.440000,-201.917000,-122.140000C-219.127000,-120.162000,-224.872000,-122.801000,-236.804000,-129.617000C-251.098000,-137.810000,-271.330000,-147.873000,-269.214000,-169.508000C-281.612000,-184.545000,-296.925000,-196.638000,-304.101000,-216.873000C-314.299000,-209.423000,-311.577000,-199.885000,-311.577000,-184.462000C-311.577000,-173.054000,-319.549000,-162.826000,-319.055000,-159.556000C-316.689000,-143.529000,-301.048000,-143.225000,-296.622000,-129.617000C-288.596000,-129.096000,-286.094000,-134.044000,-276.691000,-132.119000C-256.321000,-126.978000,-264.074000,-97.536000,-259.234000,-69.799000C-257.173000,-57.951000,-248.267000,-46.982000,-246.782000,-34.915000C-243.758000,-10.310000,-250.906000,5.774000,-269.214000,12.453000L-281.668000,12.453000C-292.307000,4.783000,-294.038000,-11.738000,-301.625000,-22.433000C-306.381000,-8.082000,-314.903000,-0.001000,-329.034000,-0.001000C-343.438000,-0.027000,-370.050000,-25.016000,-376.399000,-37.386000C-383.795000,-51.876000,-383.107000,-77.055000,-393.856000,-94.733000C-399.079000,-103.338000,-409.829000,-108.642000,-413.787000,-117.166000C-417.113000,-124.285000,-420.440000,-144.987000,-421.265000,-157.054000C-422.749000,-178.359000,-418.764000,-196.805000,-416.288000,-216.873000C-412.936000,-243.896000,-409.690000,-265.532000,-403.809000,-289.173000C-400.784000,-301.433000,-397.210000,-312.787000,-393.856000,-324.059000C-390.723000,-334.505000,-389.650000,-343.550000,-383.878000,-351.467000C-378.050000,-359.494000,-372.304000,-378.407000,-371.424000,-388.882000C-376.757000,-389.623000,-375.904000,-396.112000,-378.902000,-398.834000C-381.870000,-401.583000,-390.228000,-399.218000,-388.853000,-406.310000C-386.077000,-425.140000,-373.019000,-433.691000,-371.424000,-453.676000C-381.953000,-460.605000,-393.719000,-457.828000,-413.787000,-458.653000C-415.079000,-457.718000,-417.471000,-446.556000,-418.764000,-453.676000C-411.422000,-466.543000,-414.475000,-485.400000,-411.285000,-503.545000C-408.592000,-518.966000,-394.928000,-535.983000,-406.310000,-545.908000C-398.694000,-544.341000,-401.031000,-558.443000,-403.809000,-565.866000C-406.145000,-572.051000,-415.464000,-585.109000,-416.288000,-585.797000C-421.044000,-589.700000,-437.622000,-592.339000,-446.199000,-595.775000C-456.755000,-600.009000,-464.260000,-608.723000,-473.606000,-605.727000C-482.706000,-608.283000,-480.122000,-622.497000,-491.063000,-623.184000C-529.962000,-622.689000,-568.229000,-627.885000,-603.224000,-633.163000C-620.405000,-635.746000,-638.192000,-635.280000,-648.089000,-643.114000L-648.089000,-660.570000C-639.897000,-660.680000,-635.690000,-664.777000,-625.657000,-663.072000C-622.661000,-665.876000,-621.147000,-670.192000,-613.204000,-668.048000C-603.499000,-667.526000,-600.530000,-655.292000,-590.771000,-653.093000C-574.250000,-649.410000,-552.945000,-659.746000,-530.953000,-660.570000C-523.419000,-660.873000,-516.959000,-657.849000,-508.520000,-658.070000C-485.620000,-658.728000,-468.850000,-664.997000,-446.199000,-670.550000C-429.814000,-674.564000,-420.880000,-677.148000,-406.310000,-670.550000C-397.100000,-681.271000,-380.193000,-684.322000,-363.947000,-688.006000C-364.359000,-700.074000,-376.510000,-709.531000,-378.902000,-722.892000C-379.699000,-727.428000,-376.098000,-735.785000,-376.399000,-742.823000C-376.812000,-752.555000,-382.090000,-760.966000,-381.376000,-767.757000C-379.974000,-781.061000,-363.919000,-791.811000,-371.424000,-805.144000C-372.222000,-809.405000,-379.121000,-802.862000,-381.376000,-810.147000C-380.358000,-814.710000,-374.365000,-813.006000,-371.424000,-817.625000C-369.609000,-820.428000,-370.380000,-828.401000,-368.922000,-830.077000C-367.384000,-831.837000,-361.391000,-833.183000,-358.943000,-835.053000C-356.771000,-836.730000,-356.579000,-841.239000,-351.467000,-840.056000C-352.538000,-835.300000,-358.586000,-835.549000,-356.469000,-827.575000C-347.040000,-828.895000,-344.758000,-831.094000,-339.013000,-825.101000C-338.655000,-829.747000,-337.363000,-833.431000,-334.010000,-835.053000C-334.724000,-828.537000,-333.103000,-824.332000,-326.531000,-825.101000C-320.896000,-827.740000,-317.487000,-832.661000,-316.580000,-840.056000L-316.580000,-842.531000L-319.055000,-842.531000C-320.842000,-849.321000,-307.316000,-840.771000,-309.104000,-847.534000C-317.598000,-845.609000,-309.928000,-852.565000,-311.577000,-855.010000C-312.896000,-856.908000,-320.291000,-855.341000,-319.055000,-859.987000C-313.419000,-858.008000,-302.367000,-862.764000,-309.104000,-864.963000C-309.982000,-861.471000,-313.474000,-864.771000,-314.079000,-867.465000C-302.506000,-875.959000,-296.017000,-861.636000,-286.671000,-859.987000C-285.983000,-868.482000,-278.423000,-864.303000,-276.691000,-864.963000C-273.365000,-866.255000,-271.551000,-873.210000,-264.239000,-869.967000C-255.276000,-871.423000,-264.156000,-855.066000,-254.259000,-857.486000C-243.729000,-856.935000,-238.149000,-861.334000,-229.325000,-862.489000C-233.696000,-850.091000,-228.528000,-860.839000,-221.848000,-855.010000C-227.896000,-847.011000,-224.872000,-846.215000,-221.848000,-837.555000C-209.780000,-840.359000,-219.566000,-839.232000,-211.869000,-832.579000C-208.734000,-829.857000,-202.824000,-821.748000,-201.917000,-815.122000C-201.643000,-813.226000,-205.024000,-812.538000,-204.392000,-810.147000C-204.228000,-809.488000,-201.093000,-810.175000,-201.917000,-807.644000C-203.401000,-802.999000,-213.299000,-797.227000,-206.893000,-792.690000C-207.663000,-795.714000,-199.691000,-801.296000,-199.416000,-795.192000C-210.687000,-790.546000,-199.112000,-792.333000,-199.416000,-790.189000C-200.433000,-782.958000,-211.347000,-776.140000,-201.917000,-767.757000C-199.251000,-770.093000,-201.147000,-776.966000,-194.440000,-775.235000C-196.942000,-768.609000,-197.024000,-762.533000,-191.938000,-757.778000C-190.865000,-765.089000,-183.691000,-768.279000,-179.485000,-772.732000C-163.348000,-789.859000,-149.768000,-813.473000,-132.119000,-832.579000C-129.754000,-835.135000,-126.786000,-837.252000,-124.642000,-840.056000C-121.068000,-844.730000,-117.328000,-849.568000,-112.160000,-855.010000C-111.722000,-855.479000,-110.072000,-859.713000,-109.687000,-859.987000C-108.724000,-860.647000,-105.453000,-859.162000,-104.684000,-859.987000C-98.113000,-867.300000,-95.584000,-873.128000,-87.254000,-879.946000C-76.671000,-888.550000,-63.145000,-902.515000,-52.342000,-914.831000C-53.826000,-937.098000,-49.454000,-953.483000,-42.390000,-967.173000C-36.699000,-968.932000,-24.961000,-966.512000,-19.931000,-974.650000L-14.953000,-974.650000L-14.953000,-972.149000C-4.534000,-974.266000,-5.084000,-965.413000,0,-962.197000" transform="matrix(0.50000000000000 0 0 0.50000000000000 -155 0)" clip-rule="evenodd" fill="rgb(96,56,18)" stroke="none" stroke-width="1" stroke-miterlimit="10"/></g></g><script><![CDATA[!function(t,n){"object"==typeof exports&&"undefined"!=typeof module?module.exports=n():"function"==typeof define&&define.amd?define(n):(t=t||self).__SVGATOR_PLAYER__=n()}(this,(function(){"use strict";function t(n){return(t="function"==typeof Symbol&&"symbol"==typeof Symbol.iterator?function(t){return typeof t}:function(t){return t&&"function"==typeof Symbol&&t.constructor===Symbol&&t!==Symbol.prototype?"symbol":typeof t})(n)}function n(t,n){if(!(t instanceof n))throw new TypeError("Cannot call a class as a function")}function r(t,n){for(var r=0;r<n.length;r++){var e=n[r];e.enumerable=e.enumerable||!1,e.configurable=!0,"value"in e&&(e.writable=!0),Object.defineProperty(t,e.key,e)}}function e(t,n,e){return n&&r(t.prototype,n),e&&r(t,e),t}var i=1e-5,u=Math.abs;function o(t){return t}function a(t,n,r){var e=1-r;return 3*r*e*(t*e+n*r)+r*r*r}function l(){var t=arguments.length>0&&void 0!==arguments[0]?arguments[0]:0,n=arguments.length>1&&void 0!==arguments[1]?arguments[1]:0,r=arguments.length>2&&void 0!==arguments[2]?arguments[2]:1,e=arguments.length>3&&void 0!==arguments[3]?arguments[3]:1;return t<0||t>1||r<0||r>1?null:u(t-n)<=i&&u(r-e)<=i?o:function(o){if(o<=0)return t>0?o*n/t:0===n&&r>0?o*e/r:0;if(o>=1)return r<1?1+(o-1)*(e-1)/(r-1):1===r&&t<1?1+(o-1)*(n-1)/(t-1):1;for(var l,f=0,s=1;f<s;){var c=a(t,r,l=(f+s)/2);if(u(o-c)<i)break;c<o?f=l:s=l}return a(n,e,l)}}function f(){return 1}function s(t){return 1===t?1:0}function c(){var t=arguments.length>0&&void 0!==arguments[0]?arguments[0]:1,n=arguments.length>1&&void 0!==arguments[1]?arguments[1]:0;if(1===t){if(0===n)return s;if(1===n)return f}var r=1/t;return function(t){return t>=1?1:(t+=n*r)-t%r}}function v(t){var n=arguments.length>1&&void 0!==arguments[1]?arguments[1]:2;if(Number.isInteger(t))return t;var r=Math.pow(10,n);return Math.round(t*r)/r}var h=Math.PI/180;function y(t,n,r){return t>=.5?r:n}function d(t,n,r){return 0===t||n===r?n:t*(r-n)+n}function g(t,n,r){var e=d(t,n,r);return e<=0?0:e}function m(t,n,r){return 0===t?n:1===t?r:{x:d(t,n.x,r.x),y:d(t,n.y,r.y)}}function p(t,n,r){return 0===t?n:1===t?r:{x:g(t,n.x,r.x),y:g(t,n.y,r.y)}}function b(t,n,r){var e=function(t,n,r){return Math.round(d(t,n,r))}(t,n,r);return e<=0?0:e>=255?255:e}function w(t,n,r){return 0===t?n:1===t?r:{r:b(t,n.r,r.r),g:b(t,n.g,r.g),b:b(t,n.b,r.b),a:d(t,null==n.a?1:n.a,null==r.a?1:r.a)}}function A(t,n,r){if(0===t)return n;if(1===t)return r;var e=n.length;if(e!==r.length)return y(t,n,r);for(var i=[],u=0;u<e;u++)i.push(w(t,n[u],r[u]));return i}function x(t,n,r){var e=n.length;if(e!==r.length)return y(t,n,r);for(var i=new Array(e),u=0;u<e;u++)i[u]=d(t,n[u],r[u]);return i}function k(t,n){for(var r=[],e=0;e<t;e++)r.push(n);return r}function S(t,n){if(--n<=0)return t;var r=(t=Object.assign([],t)).length;do{for(var e=0;e<r;e++)t.push(t[e])}while(--n>0);return t}var _=6,M=/\.0+$/g;function I(t){return Number.isInteger(t)?t+"":t.toFixed(_).replace(M,"")}function E(t){var n=arguments.length>1&&void 0!==arguments[1]?arguments[1]:" ";return t&&t.length?t.map(I).join(n):""}function F(t){return I(t.x)+","+I(t.y)}function B(t){return t?null==t.a||t.a>=1?"rgb("+t.r+","+t.g+","+t.b+")":"rgba("+t.r+","+t.g+","+t.b+","+t.a+")":"transparent"}var j={f:null,i:p,u:function(t,n){return function(r){var e=n(r);t.setAttribute("rx",I(e.x)),t.setAttribute("ry",I(e.y))}}},q={f:null,i:function(t,n,r){return 0===t?n:1===t?r:{width:g(t,n.width,r.width),height:g(t,n.height,r.height)}},u:function(t,n){return function(r){var e=n(r);t.setAttribute("width",I(e.width)),t.setAttribute("height",I(e.height))}}},P=Math.sin,O=Math.cos,z=Math.acos,L=Math.asin,C=Math.tan,R=Math.atan2,T=Math.PI/180,V=180/Math.PI,D=Math.sqrt,N=function(){function t(){var r=arguments.length>0&&void 0!==arguments[0]?arguments[0]:1,e=arguments.length>1&&void 0!==arguments[1]?arguments[1]:0,i=arguments.length>2&&void 0!==arguments[2]?arguments[2]:0,u=arguments.length>3&&void 0!==arguments[3]?arguments[3]:1,o=arguments.length>4&&void 0!==arguments[4]?arguments[4]:0,a=arguments.length>5&&void 0!==arguments[5]?arguments[5]:0;n(this,t),this.m=[r,e,i,u,o,a],this.i=null,this.w=null,this.s=null}return e(t,[{key:"point",value:function(t,n){var r=this.m;return{x:r[0]*t+r[2]*n+r[4],y:r[1]*t+r[3]*n+r[5]}}},{key:"translateSelf",value:function(){var t=arguments.length>0&&void 0!==arguments[0]?arguments[0]:0,n=arguments.length>1&&void 0!==arguments[1]?arguments[1]:0;if(!t&&!n)return this;var r=this.m;return r[4]+=r[0]*t+r[2]*n,r[5]+=r[1]*t+r[3]*n,this.w=this.s=this.i=null,this}},{key:"rotateSelf",value:function(){var t=arguments.length>0&&void 0!==arguments[0]?arguments[0]:0;if(t%=360){var n=P(t*=T),r=O(t),e=this.m,i=e[0],u=e[1];e[0]=i*r+e[2]*n,e[1]=u*r+e[3]*n,e[2]=e[2]*r-i*n,e[3]=e[3]*r-u*n,this.w=this.s=this.i=null}return this}},{key:"scaleSelf",value:function(){var t=arguments.length>0&&void 0!==arguments[0]?arguments[0]:1,n=arguments.length>1&&void 0!==arguments[1]?arguments[1]:1;if(1!==t||1!==n){var r=this.m;r[0]*=t,r[1]*=t,r[2]*=n,r[3]*=n,this.w=this.s=this.i=null}return this}},{key:"skewSelf",value:function(t,n){if(n%=360,(t%=360)||n){var r=this.m,e=r[0],i=r[1],u=r[2],o=r[3];t&&(t=C(t*T),r[2]+=e*t,r[3]+=i*t),n&&(n=C(n*T),r[0]+=u*n,r[1]+=o*n),this.w=this.s=this.i=null}return this}},{key:"resetSelf",value:function(){var t=arguments.length>0&&void 0!==arguments[0]?arguments[0]:1,n=arguments.length>1&&void 0!==arguments[1]?arguments[1]:0,r=arguments.length>2&&void 0!==arguments[2]?arguments[2]:0,e=arguments.length>3&&void 0!==arguments[3]?arguments[3]:1,i=arguments.length>4&&void 0!==arguments[4]?arguments[4]:0,u=arguments.length>5&&void 0!==arguments[5]?arguments[5]:0,o=this.m;return o[0]=t,o[1]=n,o[2]=r,o[3]=e,o[4]=i,o[5]=u,this.w=this.s=this.i=null,this}},{key:"recomposeSelf",value:function(){var t=arguments.length>0&&void 0!==arguments[0]?arguments[0]:null,n=arguments.length>1&&void 0!==arguments[1]?arguments[1]:null,r=arguments.length>2&&void 0!==arguments[2]?arguments[2]:null,e=arguments.length>3&&void 0!==arguments[3]?arguments[3]:null,i=arguments.length>4&&void 0!==arguments[4]?arguments[4]:null;return this.isIdentity||this.resetSelf(),t&&(t.x||t.y)&&this.translateSelf(t.x,t.y),n&&this.rotateSelf(n),r&&(r.x&&this.skewSelf(r.x,0),r.y&&this.skewSelf(0,r.y)),!e||1===e.x&&1===e.y||this.scaleSelf(e.x,e.y),i&&(i.x||i.y)&&this.translateSelf(i.x,i.y),this}},{key:"decompose",value:function(){var t=arguments.length>0&&void 0!==arguments[0]?arguments[0]:0,n=arguments.length>1&&void 0!==arguments[1]?arguments[1]:0,r=this.m,e=r[0]*r[0]+r[1]*r[1],i=[[r[0],r[1]],[r[2],r[3]]],u=D(e);if(0===u)return{origin:{x:r[4],y:r[5]},translate:{x:t,y:n},scale:{x:0,y:0},skew:{x:0,y:0},rotate:0};i[0][0]/=u,i[0][1]/=u;var o=r[0]*r[3]-r[1]*r[2]<0;o&&(u=-u);var a=i[0][0]*i[1][0]+i[0][1]*i[1][1];i[1][0]-=i[0][0]*a,i[1][1]-=i[0][1]*a;var l=D(i[1][0]*i[1][0]+i[1][1]*i[1][1]);if(0===l)return{origin:{x:r[4],y:r[5]},translate:{x:t,y:n},scale:{x:u,y:0},skew:{x:0,y:0},rotate:0};i[1][0]/=l,i[1][1]/=l,a/=l;var f=0;return i[1][1]<0?(f=z(i[1][1])*V,i[0][1]<0&&(f=360-f)):f=L(i[0][1])*V,o&&(f=-f),a=R(a,D(i[0][0]*i[0][0]+i[0][1]*i[0][1]))*V,{origin:{x:r[4],y:r[5]},translate:{x:t,y:n},scale:{x:u,y:l},skew:{x:a,y:0},rotate:f}}},{key:"toString",value:function(){return null===this.s&&(this.s="matrix("+this.m.map($).join(" ")+")"),this.s}},{key:"determinant",get:function(){var t=this.m;return t[0]*t[3]-t[1]*t[2]}},{key:"isIdentity",get:function(){if(null===this.i){var t=this.m;this.i=1===t[0]&&0===t[1]&&0===t[2]&&1===t[3]&&0===t[4]&&0===t[5]}return this.i}}]),t}(),G=/\.0+$/;function $(t){return Number.isInteger(t)?t:t.toFixed(14).replace(G,"")}Object.freeze({M:2,L:2,Z:0,H:1,V:1,C:6,Q:4,T:2,S:4,A:7});function H(t,n,r){return t+(n-t)*r}function Q(t,n,r){var e=arguments.length>3&&void 0!==arguments[3]&&arguments[3],i={x:H(t.x,n.x,r),y:H(t.y,n.y,r)};return e&&(i.a=function(t,n){return Math.atan2(n.y-t.y,n.x-t.x)}(t,n)),i}function U(t,n,r,e){var i=1-e;return i*i*t+2*i*e*n+e*e*r}function Y(t,n,r,e){return 2*(1-e)*(n-t)+2*e*(r-n)}function Z(t,n,r,e){var i=arguments.length>4&&void 0!==arguments[4]&&arguments[4],u={x:U(t.x,n.x,r.x,e),y:U(t.y,n.y,r.y,e)};return i&&(u.a=function(t,n,r,e){return Math.atan2(Y(t.y,n.y,r.y,e),Y(t.x,n.x,r.x,e))}(t,n,r,e)),u}function J(t,n,r,e,i){var u=i*i;return i*u*(e-t+3*(n-r))+3*u*(t+r-2*n)+3*i*(n-t)+t}function K(t,n,r,e,i){var u=1-i;return 3*(u*u*(n-t)+2*u*i*(r-n)+i*i*(e-r))}function W(t,n,r,e,i){var u=arguments.length>5&&void 0!==arguments[5]&&arguments[5],o={x:J(t.x,n.x,r.x,e.x,i),y:J(t.y,n.y,r.y,e.y,i)};return u&&(o.a=function(t,n,r,e,i){return Math.atan2(K(t.y,n.y,r.y,e.y,i),K(t.x,n.x,r.x,e.x,i))}(t,n,r,e,i)),o}function X(t,n,r){var e,i=arguments.length>3&&void 0!==arguments[3]&&arguments[3];if(nt(n)){if(null!=(e=r).start&&!nt(e))return Z(n,r.start,r,t,i)}else if(nt(r)){if(n.end)return Z(n,n.end,r,t,i)}else{if(n.end)return r.start?W(n,n.end,r.start,r,t,i):Z(n,n.end,r,t,i);if(r.start)return Z(n,r.start,r,t,i)}return Q(n,r,t,i)}function tt(t,n,r){var e=X(t,n,r,!0);return e.a=function(t){return arguments.length>1&&void 0!==arguments[1]&&arguments[1]?t+Math.PI:t}(e.a)/h,e}function nt(t){return!t.type||"corner"===t.type}var rt=new N;var et={f:function(t){return t?t.join(" "):""},i:function(n,r,e){if(0===n)return r;if(1===n)return e;var i=r.length;if(i!==e.length)return y(n,r,e);for(var u,o=new Array(i),a=0;a<i;a++){if((u=t(r[a]))!==t(e[a]))return y(n,r,e);if("number"===u)o[a]=d(n,r[a],e[a]);else{if(r[a]!==e[a])return y(n,r,e);o[a]=r[a]}}return o}},it={f:null,i:x,u:function(t,n){return function(r){var e=n(r);t.setAttribute("x1",I(e[0])),t.setAttribute("y1",I(e[1])),t.setAttribute("x2",I(e[2])),t.setAttribute("y2",I(e[3]))}}},ut={f:I,i:d},ot={f:I,i:function(t,n,r){var e=d(t,n,r);return e<=0?0:e>=1?1:e}},at={f:E,i:function(t,n,r){var e,i,u,o=n.length,a=r.length;if(o!==a)if(0===o)n=k(o=a,0);else if(0===a)a=o,r=k(o,0);else{var l=(u=(e=o)*(i=a)/function(t,n){for(var r;n;)r=n,n=t%n,t=r;return t||1}(e,i))<0?-u:u;n=S(n,Math.floor(l/o)),r=S(r,Math.floor(l/a)),o=a=l}for(var f=[],s=0;s<o;s++)f.push(v(g(t,n[s],r[s]),6));return f}};function lt(t,n,r,e,i,u,o,a){return n=function(t,n,r){for(var e,i,u,o=t.length-1,a={},l=0;l<=o;l++)(e=t[l]).e&&(e.e=n(e.e)),e.v&&"g"===(i=e.v).t&&i.r&&(u=r.getElementById(i.r))&&(a[i.r]=u.querySelectorAll("stop"));return a}(t,e,a),function(e){var i,u=r(e,t,ft);return u?"c"===u.t?B(u.v):"g"===u.t?(n[u.r]&&function(t,n){for(var r=0,e=t.length;r<e;r++)t[r].setAttribute("stop-color",B(n[r]))}(n[u.r],u.v),(i=u.r)?"url(#"+i+")":"none"):"none":"none"}}function ft(t,n,r){if(0===t)return n;if(1===t)return r;if(n&&r){var e=n.t;if(e===r.t)switch(n.t){case"c":return{t:e,v:w(t,n.v,r.v)};case"g":if(n.r===r.r)return{t:e,v:A(t,n.v,r.v),r:n.r}}}return y(t,n,r)}var st={blur:p,brightness:g,contrast:g,"drop-shadow":function(t,n,r){return 0===t?n:1===t?r:{blur:p(t,n.blur,r.blur),offset:m(t,n.offset,r.offset),color:w(t,n.color,r.color)}},grayscale:g,"hue-rotate":d,invert:g,opacity:g,saturate:g,sepia:g};function ct(t,n,r){if(0===t)return n;if(1===t)return r;var e=n.length;if(e!==r.length)return y(t,n,r);for(var i,u=[],o=0;o<e;o++){if(n[o].type!==r[o].type)return n;if(!(i=st[n[o].type]))return y(t,n,r);u.push({type:n.type,value:i(t,n[o].value,r[o].value)})}return u}var vt={blur:function(t){return t?function(n){t.setAttribute("stdDeviation",F(n))}:null},brightness:function(t,n,r){return(t=yt(r,n))?function(n){n=I(n),t.map((function(t){return t.setAttribute("slope",n)}))}:null},contrast:function(t,n,r){return(t=yt(r,n))?function(n){var r=I((1-n)/2);n=I(n),t.map((function(t){t.setAttribute("slope",n),t.setAttribute("intercept",r)}))}:null},"drop-shadow":function(t,n,r){var e=r.getElementById(n+"-blur");if(!e)return null;var i=r.getElementById(n+"-offset");if(!i)return null;var u=r.getElementById(n+"-flood");return u?function(t){e.setAttribute("stdDeviation",F(t.blur)),i.setAttribute("dx",I(t.offset.x)),i.setAttribute("dy",I(t.offset.y)),u.setAttribute("flood-color",B(t.color))}:null},grayscale:function(t){return t?function(n){t.setAttribute("values",E(function(t){return[.2126+.7874*(t=1-t),.7152-.7152*t,.0722-.0722*t,0,0,.2126-.2126*t,.7152+.2848*t,.0722-.0722*t,0,0,.2126-.2126*t,.7152-.7152*t,.0722+.9278*t,0,0,0,0,0,1,0]}(n)))}:null},"hue-rotate":function(t){return t?function(n){return t.setAttribute("values",I(n))}:null},invert:function(t,n,r){return(t=yt(r,n))?function(n){n=I(n)+" "+I(1-n),t.map((function(t){return t.setAttribute("tableValues",n)}))}:null},opacity:function(t,n,r){return(t=r.getElementById(n+"-A"))?function(n){return t.setAttribute("tableValues","0 "+I(n))}:null},saturate:function(t){return t?function(n){return t.setAttribute("values",I(n))}:null},sepia:function(t){return t?function(n){return t.setAttribute("values",E(function(t){return[.393+.607*(t=1-t),.769-.769*t,.189-.189*t,0,0,.349-.349*t,.686+.314*t,.168-.168*t,0,0,.272-.272*t,.534-.534*t,.131+.869*t,0,0,0,0,0,1,0]}(n)))}:null}};var ht=["R","G","B"];function yt(t,n){var r=ht.map((function(r){return t.getElementById(n+"-"+r)||null}));return-1!==r.indexOf(null)?null:r}var dt={fill:lt,"fill-opacity":ot,stroke:lt,"stroke-opacity":ot,"stroke-width":ut,"stroke-dashoffset":{f:I,i:d},"stroke-dasharray":at,opacity:ot,transform:function(n,r,e,i){if(!(n=function(n,r){if(!n||"object"!==t(n))return null;var e=!1;for(var i in n)n.hasOwnProperty(i)&&(n[i]&&n[i].length?(n[i].forEach((function(t){t.e&&(t.e=r(t.e))})),e=!0):delete n[i]);return e?n:null}(n,i)))return null;var u=function(t,i,u){var o=arguments.length>3&&void 0!==arguments[3]?arguments[3]:null;return n[t]?e(i,n[t],u):r&&r[t]?r[t]:o};return r&&r.a&&n.o?function(t){var r=e(t,n.o,tt);return rt.recomposeSelf(r,u("r",t,d,0)+r.a,u("k",t,m),u("s",t,m),u("t",t,m)).toString()}:function(t){return rt.recomposeSelf(u("o",t,X,null),u("r",t,d,0),u("k",t,m),u("s",t,m),u("t",t,m)).toString()}},"#filter":function(t,n,r,e,i,u,o,a){if(!n.items||!t||!t.length)return null;var l=function(t,n){var r=(t=t.map((function(t){return t&&vt[t[0]]?(n.getElementById(t[1]),vt[t[0]](n.getElementById(t[1]),t[1],n)):null}))).length;return function(n){for(var e=0;e<r;e++)t[e]&&t[e](n[e].value)}}(n.items,a);return l?(t=function(t,n){return t.map((function(t){return t.e=n(t.e),t}))}(t,e),function(n){l(r(n,t,ct))}):null},"#line":it,points:{f:E,i:x},d:et,r:ut,"#size":q,"#radius":j,_:function(t,n){if(Array.isArray(t))for(var r=0;r<t.length;r++)this[t[r]]=n;else this[t]=n}},gt=function(){function t(r){n(this,t),this.list=r,this.length=r.length}return e(t,[{key:"setAttribute",value:function(t,n){for(var r=this.list,e=0;e<this.length;e++)r[e].setAttribute(t,n)}},{key:"removeAttribute",value:function(t){for(var n=this.list,r=0;r<this.length;r++)n[r].removeAttribute(t)}},{key:"style",value:function(t,n){for(var r=this.list,e=0;e<this.length;e++)r[e].style[t]=n}}]),t}(),mt=/-./g,pt=function(t,n){return n.toUpperCase()};function bt(t){return"function"==typeof t?t:y}function wt(t){return t?"function"==typeof t?t:Array.isArray(t)?function(t){var n=arguments.length>1&&void 0!==arguments[1]?arguments[1]:o;if(!Array.isArray(t))return n;switch(t.length){case 1:return c(t[0])||n;case 2:return c(t[0],t[1])||n;case 4:return l(t[0],t[1],t[2],t[3])||n}return n}(t,null):function(t,n){var r=arguments.length>2&&void 0!==arguments[2]?arguments[2]:o;switch(t){case"linear":return o;case"steps":return c(n.steps||1,n.jump||0)||r;case"bezier":case"cubic-bezier":return l(n.x1||0,n.y1||0,n.x2||0,n.y2||0)||r}return r}(t.type,t.value,null):null}function At(t,n,r){var e=arguments.length>3&&void 0!==arguments[3]&&arguments[3],i=n.length-1;if(t<=n[0].t)return e?[0,0,n[0].v]:n[0].v;if(t>=n[i].t)return e?[i,1,n[i].v]:n[i].v;var u,o=n[0],a=null;for(u=1;u<=i;u++){if(!(t>n[u].t)){a=n[u];break}o=n[u]}return null==a?e?[i,1,n[i].v]:n[i].v:o.t===a.t?e?[u,1,a.v]:a.v:(t=(t-o.t)/(a.t-o.t),o.e&&(t=o.e(t)),e?[u,t,r(t,o.v,a.v)]:r(t,o.v,a.v))}function xt(t,n){var r=arguments.length>2&&void 0!==arguments[2]?arguments[2]:null;return t&&t.length?"function"!=typeof n?null:("function"!=typeof r&&(r=null),function(e){var i=At(e,t,n);return null!=i&&r&&(i=r(i)),i}):null}function kt(t,n){return t.t-n.t}function St(n,r,e,i,u){var o,a="@"===e[0],l="#"===e[0],f=dt[e],s=y;switch(a?(o=e.substr(1),e=o.replace(mt,pt)):l&&(e=e.substr(1)),t(f)){case"function":if(s=f(i,u,At,wt,e,a,r,n),l)return s;break;case"string":s=xt(i,bt(f));break;case"object":if((s=xt(i,bt(f.i),f.f))&&"function"==typeof f.u)return f.u(r,s,e,a,n)}return s?function(t,n,r){if(arguments.length>3&&void 0!==arguments[3]&&arguments[3])return t instanceof gt?function(e){return t.style(n,r(e))}:function(e){return t.style[n]=r(e)};if(Array.isArray(n)){var e=n.length;return function(i){var u=r(i);if(null==u)for(var o=0;o<e;o++)t[o].removeAttribute(n);else for(var a=0;a<e;a++)t[a].setAttribute(n,u)}}return function(e){var i=r(e);null==i?t.removeAttribute(n):t.setAttribute(n,i)}}(r,e,s,a):null}function _t(n,r,e,i){if(!i||"object"!==t(i))return null;var u=null,o=null;return Array.isArray(i)?o=function(t){if(!t||!t.length)return null;for(var n=0;n<t.length;n++)t[n].e&&(t[n].e=wt(t[n].e));return t.sort(kt)}(i):(o=i.keys,u=i.data||null),o?St(n,r,e,o,u):null}function Mt(t,n,r){if(!r)return null;var e=[];for(var i in r)if(r.hasOwnProperty(i)){var u=_t(t,n,i,r[i]);u&&e.push(u)}return e.length?e:null}function It(t,n){if(!n.duration||n.duration<0)return null;var r=function(t,n){if(!n)return null;var r=[];if(Array.isArray(n))for(var e=n.length,i=0;i<e;i++){var u=n[i];if(2===u.length){var o=null;if("string"==typeof u[0])o=t.getElementById(u[0]);else if(Array.isArray(u[0])){o=[];for(var a=0;a<u[0].length;a++)if("string"==typeof u[0][a]){var l=t.getElementById(u[0][a]);l&&o.push(l)}o=o.length?1===o.length?o[0]:new gt(o):null}if(o){var f=Mt(t,o,u[1]);f&&(r=r.concat(f))}}}else for(var s in n)if(n.hasOwnProperty(s)){var c=t.getElementById(s);if(c){var v=Mt(t,c,n[s]);v&&(r=r.concat(v))}}return r.length?r:null}(t,n.elements);return r?function(t,n){var r=arguments.length>2&&void 0!==arguments[2]?arguments[2]:1/0,e=arguments.length>3&&void 0!==arguments[3]?arguments[3]:1,i=arguments.length>4&&void 0!==arguments[4]&&arguments[4],u=arguments.length>5&&void 0!==arguments[5]?arguments[5]:1,o=t.length,a=e>0?n:0;i&&r%2==0&&(a=n-a);var l=null;return function(f,s){var c=f%n,v=1+(f-c)/n;s*=e,i&&v%2==0&&(s=-s);var h=!1;if(v>r)c=a,h=!0,-1===u&&(c=e>0?0:n);else if(s<0&&(c=n-c),c===l)return!1;l=c;for(var y=0;y<o;y++)t[y](c);return h}}(r,n.duration,n.iterations||1/0,n.direction||1,!!n.alternate,n.fill||1):null}var Et=function(){function t(r){var e=arguments.length>1&&void 0!==arguments[1]?arguments[1]:{};n(this,t),this._id=0,this._running=!1,this._animations=r,this.direction=e.direction||1,this.speed=e.speed||1,this.fps=e.fps||100,this.offset=e.offset||0}return e(t,[{key:"_start",value:function(){var t=this,n=arguments.length>0&&void 0!==arguments[0]?arguments[0]:0,r=-1/0,e=null,i={},u=function u(o){t._running=!0,null==e&&(e=o);var a=Math.round((o-e+n)*t.speed),l=t.fps?1e3/t.fps:0;if(a>r+l){t.offset=a,r=a;for(var f=t._animations,s=f.length,c=0,v=0;v<s;v++)i[v]?c++:(i[v]=f[v](a,t.direction),i[v]&&c++);if(c===s)return void t._stop()}t._id=window.requestAnimationFrame(u)};this._id=window.requestAnimationFrame(u)}},{key:"_stop",value:function(){this._id&&window.cancelAnimationFrame(this._id),this._running=!1}},{key:"play",value:function(){this._running||this._start(this.offset)}},{key:"stop",value:function(){this._stop(),this.offset=0;var t=this.direction,n=this._animations;requestAnimationFrame((function(){for(var r=0;r<n.length;r++)n[r](0,t)}))}},{key:"restart",value:function(){this._stop(),this.offset=0,this._start()}},{key:"pause",value:function(){this._stop()}},{key:"reverse",value:function(){this.direction=-this.direction}}],[{key:"build",value:function(n){if(!(n=function(t){if(!t||!t.root||!Array.isArray(t.animations))return null;var n=window.document.getElementById(t.root);if(!n)return null;var r=t.animations.map((function(t){return It(n,t)})).filter((function(t){return!!t}));return r.length?{element:n,animations:r,options:t.options||void 0}:null}(n)))return null;var r=n.element,e=n.options||{},i=new t(n.animations,n.options);return function(t,n,r){var e=arguments.length>3&&void 0!==arguments[3]?arguments[3]:null;if("click"===r){return void n.addEventListener("click",(function r(){n.removeEventListener("click",r),t.play()}))}if("hover"===r)return n.addEventListener("mouseenter",(function(){return t.play()})),void n.addEventListener("mouseleave","freeze"===e?function(){return t.pause()}:function(){return t.stop()});t.play()}(i,r,e.start,e.hover),i}}]),t}();return function(){for(var t=0,n=["ms","moz","webkit","o"],r=0;r<n.length&&!window.requestAnimationFrame;++r)window.requestAnimationFrame=window[n[r]+"RequestAnimationFrame"],window.cancelAnimationFrame=window[n[r]+"CancelAnimationFrame"]||window[n[r]+"CancelRequestAnimationFrame"];window.requestAnimationFrame||(window.requestAnimationFrame=function(n){var r=Date.now(),e=Math.max(0,16-(r-t)),i=window.setTimeout((function(){n(r+e)}),e);return t=r+e,i},window.cancelAnimationFrame=window.clearTimeout)}(),Et}));
__SVGATOR_PLAYER__.build({"root":"e1i80ag8g4vp1","animations":[{"duration":3000,"direction":1,"iterations":1,"fill":1,"alternate":false,"elements":{"e1i80ag8g4vp2":{"opacity":[{"t":0,"v":0},{"t":3000,"v":1}]},"e1i80ag8g4vp15":{"transform":{"data":{"o":{"x":4550.348574595,"y":2342.15371488,"type":"corner"},"t":{"x":-1092.082824709727,"y":-562.1164627103733}},"keys":{"s":[{"t":0,"v":{"x":6.6720275749572595,"y":6.6720275749572595}},{"t":3000,"v":{"x":4.166669845581055,"y":4.166669845581055}}]}}},"e1i80ag8g4vp94":{"transform":{"data":{"s":{"x":4.166669845581055,"y":4.166669845581055}},"keys":{"o":[{"t":0,"v":{"x":0,"y":1500,"type":"corner"}},{"t":3000,"v":{"x":0,"y":0,"type":"corner"}}]}}},"e1i80ag8g4vp105":{"transform":{"keys":{"o":[{"t":0,"v":{"x":-155,"y":0,"type":"corner"}},{"t":3000,"v":{"x":0,"y":0,"type":"corner"}}],"s":[{"t":0,"v":{"x":0.5,"y":0.5}},{"t":3000,"v":{"x":1,"y":1}}]}}}}}],"options":{"start":"load","hover":"freeze"}})]]></script></svg>